<?xml version="1.0" encoding="UTF-8"?>
<svg xmlns="http://www.w3.org/2000/svg" viewBox="0 0 180 180">
  <defs>
    <style>
      .bg { fill: #583ab5; }
      .icon { fill: #faf3e6; }
      .accent { fill: #f7a71b; }
    </style>
  </defs>
  <!-- Background -->
  <rect class="bg" width="180" height="180" rx="40" ry="40"/>
  
  <!-- GSL Icon simplified -->
  <circle class="bg" cx="90" cy="90" r="60"/>
  <path class="icon" d="M80,100c-2,1-3,2-4,4-2,3-4,6-5,9-1,2-3,4-6,5-4,2-9,0-11-5-1-2-1-4-1-6 0-6-1-13-1-19 0-5 2-10 6-13 3-2 6-3 10-3 2,0 4,0 7-1 6-1 12-3 18-4 1,0 2-1 3-2 1-1 2-1 2-1 3-1 7-2 10-1 4,1 7,3 9,7 3,6 6,12 9,18 1,1 1,3 2,4 1,4 0,8-4,10-3,2-7,2-10,0-3-2-7-4-10-6-2-1-3-2-5-2-1,0-1,0-1,0-5,1-11,3-16,4 0,0-1,0-1,1Z"/>
  
  <!-- G letter -->
  <text x="50" y="140" font-family="Arial Black, sans-serif" font-size="28" font-weight="900" class="accent">G</text>
  <text x="75" y="140" font-family="Arial Black, sans-serif" font-size="28" font-weight="900" class="accent">S</text>
  <text x="100" y="140" font-family="Arial Black, sans-serif" font-size="28" font-weight="900" class="accent">L</text>
</svg>
