<?xml version="1.0" encoding="UTF-8"?>
<svg xmlns="http://www.w3.org/2000/svg" viewBox="0 0 109.07 109.07">
  <defs>
    <style>
      .cls-1 { fill: #f83f27; }
      .cls-2 { fill: #faf3e6; }
      .cls-3 { fill: #583ab5; }
      .cls-4 { fill: #f7a71b; }
    </style>
  </defs>
  <path class="cls-3" d="M54.54,0h0c30.12,0,54.54,24.42,54.54,54.54h0c0,30.12-24.42,54.54-54.54,54.54h0C24.42,109.07,0,84.65,0,54.54h0C0,24.42,24.42,0,54.54,0Z"/>
  <path class="cls-2" d="M48.34,64.89c-2.18.83-3.65,2.4-4.79,4.39-1.73,3.02-3.54,5.99-5.33,8.96-1.43,2.37-3.39,4.19-5.98,5.15-4.08,1.52-9.12-.13-11.35-4.73-.96-1.99-.84-4.13-.94-6.23-.31-6.47-.67-12.94-.77-19.41-.08-5.44,1.7-10.17,6.44-13.33,2.92-1.94,6.19-3.28,9.69-2.93,2.33.24,4.45-.09,6.63-.63,5.88-1.46,11.76-2.94,17.64-4.4,1.08-.27,2-.7,2.84-1.52.65-.64,1.57-1.12,2.45-1.39,3.36-1.03,6.78-1.56,10.26-.67,3.87,1,7,3.18,8.88,6.67,3.28,6.07,6.29,12.29,9.38,18.46.64,1.27,1.23,2.57,1.68,3.92,1.32,3.91-.09,8.35-3.58,10.48-3.16,1.93-6.63,2.14-9.94.33-3.48-1.91-6.84-4.03-10.24-6.09-1.63-.99-3.35-1.57-5.39-1.52-.4-.08-.69-.15-.96-.08-5.28,1.32-10.55,2.64-15.82,3.99-.3.08-.55.37-.82.56ZM43.71,52.83c-.06-.19-.11-.38-.16-.58-.42-1.55-.93-1.9-2.5-1.64-.85.14-1.68.37-2.52.58-.67.17-1.07-.02-1.25-.72-.23-.9-.49-1.79-.79-2.67-.39-1.12-.97-1.48-2.11-1.32-.79.11-1.57.26-2.34.46-1.32.35-1.8,1.09-1.58,2.43.17.98.41,1.95.64,2.91.12.5.04.81-.52.97-.86.25-1.69.57-2.54.85-1.94.64-2.32,1.31-1.79,3.25.12.45.25.9.39,1.34.47,1.39,1.13,1.75,2.58,1.41.81-.19,1.63-.33,2.41-.59.99-.33,1.38.09,1.57,1,.19.87.45,1.73.75,2.57.34.93,1.08,1.36,2.04,1.2.88-.15,1.75-.36,2.59-.67,1.11-.4,1.49-1.04,1.33-2.25-.13-.95-.37-1.88-.62-2.81-.19-.67.04-.97.68-1.14.93-.26,1.84-.56,2.74-.89,1.28-.48,1.62-1.14,1.34-2.47-.08-.36-.2-.7-.35-1.22ZM79.86,41.4c-1.87-.87-3.69-.19-4.41,1.62-.65,1.64.23,3.8,1.86,4.24,1.84.5,3.79-.18,4.32-2.24.4-1.55-.51-2.63-1.77-3.62ZM69.12,36.79c-1.9,1.46-2.16,3.86-.56,5.14,1.21.97,2.98.96,4.1-.03,1.27-1.11,1.61-3.02.76-4.3-.81-1.23-2.51-1.59-4.31-.81ZM63.15,49.01c.15.22.29.45.46.65,1.07,1.2,3.08,1.3,4.43.23,1.26-.99,1.55-2.88.66-4.19-.92-1.35-2.56-1.76-4.02-1-1.81.94-2.34,2.32-1.53,4.31ZM70.76,53.05c.59,2.02,2.31,2.83,4.36,2.05,1.47-.56,2.24-1.98,1.9-3.48-.39-1.7-1.59-2.67-3.15-2.52-1.61.16-3.57,1.58-3.11,3.95Z"/>
</svg>
