<?xml version="1.0" encoding="UTF-8"?>
<svg id="Layer_1" data-name="Layer 1" xmlns="http://www.w3.org/2000/svg" viewBox="0 0 882.5 218.13">
  <defs>
    <style>
      .cls-1 {
        fill: #f83f27;
      }

      .cls-2 {
        fill: #faf3e6;
      }

      .cls-3 {
        fill: #583ab5;
      }

      .cls-4 {
        fill: #f7a71b;
      }
    </style>
  </defs>
  <path class="cls-3" d="M109.07,0h0c60.23,0,109.07,48.83,109.07,109.07h0c0,60.23-48.83,109.07-109.07,109.07h0C48.83,218.13,0,169.3,0,109.07h0C0,48.83,48.83,0,109.07,0Z"/>
  <path class="cls-2" d="M96.68,129.79c-4.35,1.66-7.29,4.8-9.58,8.78-3.46,6.03-7.07,11.97-10.66,17.92-2.85,4.73-6.78,8.38-11.95,10.29-8.16,3.03-18.24-.25-22.69-9.45-1.92-3.97-1.67-8.26-1.87-12.45-.61-12.93-1.34-25.87-1.53-38.82-.16-10.87,3.4-20.34,12.88-26.65,5.83-3.88,12.37-6.56,19.38-5.85,4.66.47,8.9-.18,13.25-1.26,11.76-2.92,23.51-5.87,35.27-8.79,2.15-.53,4-1.4,5.67-3.03,1.3-1.27,3.13-2.23,4.9-2.77,6.71-2.05,13.56-3.12,20.51-1.33,7.73,1.99,14,6.36,17.76,13.33,6.56,12.14,12.57,24.57,18.75,36.91,1.27,2.54,2.45,5.14,3.35,7.83,2.64,7.81-.18,16.69-7.15,20.95-6.32,3.86-13.26,4.27-19.87.65-6.96-3.81-13.68-8.06-20.47-12.17-3.25-1.97-6.69-3.14-10.77-3.03-.8-.16-1.38-.3-1.91-.16-10.55,2.63-21.1,5.28-31.63,7.98-.6.15-1.09.74-1.64,1.12ZM87.42,105.65c-.11-.38-.21-.76-.32-1.15-.84-3.1-1.85-3.8-4.99-3.27-1.69.28-3.36.73-5.03,1.15-1.34.34-2.13-.03-2.49-1.44-.45-1.8-.97-3.58-1.57-5.33-.77-2.23-1.94-2.95-4.22-2.63-1.57.22-3.14.51-4.67.91-2.63.7-3.6,2.18-3.15,4.86.33,1.95.81,3.89,1.27,5.81.24,1,.07,1.61-1.03,1.93-1.71.5-3.38,1.14-5.08,1.7-3.88,1.27-4.63,2.61-3.58,6.5.24.89.49,1.79.78,2.67.93,2.78,2.25,3.49,5.15,2.81,1.61-.38,3.25-.66,4.82-1.18,1.97-.65,2.75.17,3.14,1.99.38,1.74.89,3.46,1.5,5.13.67,1.85,2.16,2.71,4.08,2.4,1.75-.29,3.5-.72,5.17-1.33,2.21-.8,2.97-2.08,2.66-4.49-.25-1.89-.73-3.76-1.24-5.61-.37-1.34.07-1.93,1.35-2.28,1.85-.51,3.67-1.11,5.47-1.78,2.55-.95,3.24-2.28,2.67-4.93-.15-.71-.4-1.4-.7-2.43ZM159.72,82.79c-3.73-1.73-7.38-.38-8.81,3.24-1.29,3.28.46,7.6,3.71,8.48,3.68,1,7.57-.36,8.64-4.47.8-3.09-1.01-5.26-3.54-7.24ZM138.24,73.58c-3.79,2.91-4.32,7.71-1.12,10.27,2.42,1.93,5.95,1.91,8.2-.06,2.54-2.22,3.22-6.03,1.52-8.59-1.62-2.45-5.02-3.17-8.61-1.62ZM126.3,98.02c.3.43.57.9.91,1.29,2.14,2.39,6.15,2.59,8.86.46,2.51-1.98,3.1-5.75,1.32-8.37-1.84-2.7-5.12-3.51-8.03-2-3.61,1.88-4.68,4.63-3.06,8.62ZM141.52,106.1c1.18,4.03,4.62,5.65,8.72,4.1,2.94-1.11,4.48-3.95,3.79-6.96-.78-3.39-3.18-5.33-6.29-5.03-3.22.31-7.14,3.16-6.21,7.89Z"/>
  <path class="cls-1" d="M270.86,190.1c-14.22,0-26.89-3.41-38-10.22-11.11-6.82-19.7-16.3-25.78-28.45-6.07-12.15-9.11-25.85-9.11-41.11,0-16.59,3.19-31.11,9.56-43.56,6.37-12.45,15.33-22,26.89-28.67,11.56-6.82,24.74-10.22,39.56-10.22,5.19,0,9.56.67,13.11,2,3.7,1.19,7.26,2.81,10.67,4.89.89.44,1.7.81,2.45,1.11.74.3,1.41.59,2,.89l-6.45-13.56,1.11-1.33h29.11l14.67,58.89-22.89,8c-4.15-7.41-8.15-13.41-12-18-3.85-4.74-8.37-8.44-13.56-11.11-5.18-2.67-11.19-4-18-4-8,0-15.11,2.15-21.33,6.44-6.07,4.3-10.89,10.44-14.45,18.45-3.41,8-5.11,17.41-5.11,28.22s1.78,19.56,5.33,27.56c3.56,8,8.52,14.3,14.89,18.89,6.37,4.45,13.63,6.67,21.78,6.67,7.41,0,14.08-1.55,20-4.67,6.08-3.26,10.74-7.41,14-12.44,3.41-5.18,5.11-10.59,5.11-16.22v-4.44c-4.89,0-10.89.52-18,1.56-6.96.89-12.15,1.78-15.56,2.67l-1.11-1.33,5.33-25.78h16.44c5.48,0,10.82-.07,16-.22,5.18-.15,10.22-.3,15.11-.44,1.93-.15,3.85-.22,5.78-.22,2.07-.15,4-.3,5.78-.44l1.11,1.78c-.74,11.41-1.11,23.26-1.11,35.56v25.34c1.78,0,6.07-.96,12.89-2.89.89-.15,1.7-.3,2.45-.45.74-.3,1.48-.52,2.22-.67l.89,1.33-5.11,26.89h-39.78v-17.78c-3.11,3.7-6.82,7.18-11.11,10.45-4.3,3.11-9.48,5.63-15.56,7.56-6.07,2.07-12.82,3.11-20.22,3.11Z"/>
  <path class="cls-4" d="M398.9,190.1c-5.48,0-10.74-.59-15.78-1.78-5.04-1.04-9.63-2.44-13.78-4.22-1.63-.74-3.18-1.48-4.67-2.22-1.48-.74-2.82-1.48-4-2.22l6.89,16-1.33,1.56h-28.22l-17.11-65.34,22.67-7.56,2.22,5.56c2.81,6.67,7.04,12.67,12.67,18,5.78,5.19,12.15,9.19,19.11,12,7.11,2.82,14.3,4.22,21.56,4.22,7.7,0,13.85-1.33,18.45-4,4.74-2.82,7.11-6.89,7.11-12.22,0-4.3-1.56-7.78-4.67-10.44-3.11-2.67-7.18-4.89-12.22-6.67-4.89-1.93-12-4.07-21.33-6.44-.59-.3-1.18-.52-1.78-.67-.59-.15-1.26-.3-2-.44-10.67-2.96-19.93-6.15-27.78-9.56-7.7-3.41-14.52-8.52-20.45-15.33-5.93-6.82-8.89-15.63-8.89-26.45,0-9.78,2.52-17.93,7.56-24.45,5.04-6.67,11.63-11.56,19.78-14.67,8.15-3.26,16.96-4.89,26.44-4.89,2.96,0,5.78.22,8.45.67,2.82.3,5.41.74,7.78,1.33,2.52.44,4.89,1.04,7.11,1.78,1.18.44,2.3.89,3.33,1.33,1.19.44,2.3.89,3.33,1.33l-4.89-11.11,1.11-1.33h28.89l14.45,60.23-21.78,7.11-1.11-2.44c-3.11-6.67-7.11-12.37-12-17.11-4.74-4.89-10-8.59-15.78-11.11-5.63-2.52-11.26-3.78-16.89-3.78-6.52,0-11.85,1.41-16,4.22-4.15,2.67-6.22,6.59-6.22,11.78,0,4.3,1.56,7.85,4.67,10.67,3.11,2.82,6.96,5.11,11.56,6.89,4.59,1.63,10.96,3.56,19.11,5.78l3.56.89,2.22.67c12.3,3.26,22.3,6.52,30,9.78,7.7,3.26,14.3,8.15,19.78,14.67,5.63,6.52,8.44,15.19,8.44,26,0,9.63-2.67,17.78-8,24.45-5.33,6.67-12.52,11.63-21.56,14.89-8.89,3.11-18.89,4.67-30,4.67Z"/>
  <path class="cls-3" d="M514.58,198.99l7.33-12.22h-76.23v-2.22c.89-10.67,1.33-22.52,1.33-35.56V55.43c-1.63,0-4.52.44-8.67,1.33-4.15.74-8.37,1.63-12.67,2.67l-.89-1.33,5.11-26.89h52.23v2.22c-.74,12.45-1.11,24.3-1.11,35.56v91.12h10.22c10.22,0,18.52-.89,24.89-2.67,6.37-1.78,11.33-4.37,14.89-7.78,3.7-3.55,6.74-8.07,9.11-13.56l2-4.22,19.11,6.67-17.33,61.56h-28.45l-.89-1.11Z"/>
  <path class="cls-1" d="M774.15,106.93V22.81h108.35v18.58h-85.2v14.92h80.49v15.4h-80.49v16.02h85.2v19.2h-108.35Z"/>
  <path class="cls-1" d="M671.92,107.2V23.22h25.39l21,40.77,20.51-40.77h25.39v83.99h-25.39v-43.95l-15.5,29.3h-10.38l-15.62-29.3v43.95h-25.39Z"/>
  <path class="cls-1" d="M582.02,107.2l23.19-83.99h39.55l24.29,83.99h-29.91l-3.17-16.11h-21.73l-3.54,16.11h-28.69ZM616.81,76.07h16.24l-7.93-36.74-8.3,36.74Z"/>
  <path class="cls-1" d="M551.64,109.16c-8.79,0-16.44-1.79-22.95-5.37-6.43-3.58-11.43-8.54-15.02-14.89-3.58-6.35-5.37-13.67-5.37-21.97,0-8.87,1.87-16.72,5.61-23.56,3.74-6.84,8.99-12.21,15.75-16.11,6.76-3.91,14.61-5.86,23.56-5.86,9.77,0,17.54,1.95,23.32,5.86l-3.66,19.17c-5.13-2.2-10.46-3.3-15.99-3.3-6.67,0-11.92,1.99-15.75,5.98-3.82,3.99-5.74,9.52-5.74,16.6s1.71,12.74,5.13,16.72c3.5,3.99,7.93,5.98,13.31,5.98,1.95,0,3.58-.16,4.88-.49v-20.87l21.12-2.44v38.21c-4.64,2.12-9.36,3.7-14.16,4.76-4.8,1.06-9.48,1.59-14.04,1.59Z"/>
  <path class="cls-3" d="M822.9,197.77v-83.99h58.96v18.56h-29.3v14.89h26.73v15.38h-26.73v15.99h29.3v19.16h-58.96Z"/>
  <path class="cls-3" d="M733.39,197.77v-83.99h24.41l32.96,44.56v-44.56h22.46v83.99h-24.41l-32.96-42.72v42.72h-22.46Z"/>
  <path class="cls-3" d="M682.28,199.72c-8.87,0-16.68-1.87-23.44-5.62-6.75-3.74-12.04-8.91-15.87-15.5-3.74-6.59-5.62-14.16-5.62-22.71s1.87-16.24,5.62-22.83c3.83-6.59,9.12-11.76,15.87-15.5,6.76-3.74,14.57-5.62,23.44-5.62s16.68,1.87,23.44,5.62c6.75,3.66,12,8.79,15.75,15.38,3.83,6.59,5.74,14.24,5.74,22.95s-1.91,16.11-5.74,22.71c-3.74,6.59-8.99,11.76-15.75,15.5-6.76,3.74-14.57,5.62-23.44,5.62ZM682.28,177.5c5.13,0,9.32-1.99,12.57-5.98,3.34-3.99,5.01-9.24,5.01-15.75,0-4.39-.77-8.26-2.32-11.6-1.47-3.34-3.54-5.94-6.23-7.81-2.6-1.95-5.66-2.93-9.16-2.93-5.13,0-9.32,2.07-12.57,6.23-3.26,4.07-4.88,9.44-4.88,16.11s1.63,11.76,4.88,15.75c3.26,3.99,7.49,5.98,12.7,5.98Z"/>
  <path class="cls-3" d="M580.39,197.77v-17.7l28.81-47h-27.71v-19.29h55.54v17.82l-28.32,46.88h28.93v19.29h-57.25Z"/>
</svg>